<svg width="20" height="20" viewBox="0 0 20 20" fill="none" xmlns="http://www.w3.org/2000/svg">
<g id="add_box_FILL0_wght300_GRAD0_opsz24 1">
<path id="Vector" d="M9.37533 10.6263V13.3346C9.37533 13.512 9.43515 13.6605 9.5548 13.7801C9.67446 13.8998 9.82296 13.9596 10.0003 13.9596C10.1777 13.9596 10.3262 13.8998 10.4458 13.7801C10.5655 13.6605 10.6253 13.512 10.6253 13.3346V10.6263H13.3336C13.511 10.6263 13.6595 10.5664 13.7791 10.4468C13.8988 10.3271 13.9586 10.1786 13.9586 10.0013C13.9586 9.82393 13.8988 9.67543 13.7791 9.55578C13.6595 9.43613 13.511 9.3763 13.3336 9.3763H10.6253V6.66795C10.6253 6.4906 10.5655 6.3421 10.4458 6.22245C10.3262 6.1028 10.1777 6.04297 10.0003 6.04297C9.82296 6.04297 9.67446 6.1028 9.5548 6.22245C9.43515 6.3421 9.37533 6.4906 9.37533 6.66795V9.3763H6.66697C6.48962 9.3763 6.34112 9.43613 6.22147 9.55578C6.10182 9.67543 6.04199 9.82393 6.04199 10.0013C6.04199 10.1786 6.10182 10.3271 6.22147 10.4468C6.34112 10.5664 6.48962 10.6263 6.66697 10.6263H9.37533ZM4.42341 17.0846C4.00246 17.0846 3.64616 16.9388 3.35449 16.6471C3.06283 16.3554 2.91699 15.9991 2.91699 15.5782V4.42439C2.91699 4.00344 3.06283 3.64714 3.35449 3.35547C3.64616 3.0638 4.00246 2.91797 4.42341 2.91797H15.5772C15.9981 2.91797 16.3545 3.0638 16.6461 3.35547C16.9378 3.64714 17.0836 4.00344 17.0836 4.42439V15.5782C17.0836 15.9991 16.9378 16.3554 16.6461 16.6471C16.3545 16.9388 15.9981 17.0846 15.5772 17.0846H4.42341ZM4.42341 15.8346H15.5772C15.6413 15.8346 15.7001 15.8079 15.7535 15.7545C15.8069 15.7011 15.8336 15.6423 15.8336 15.5782V4.42439C15.8336 4.36028 15.8069 4.3015 15.7535 4.24807C15.7001 4.19466 15.6413 4.16795 15.5772 4.16795H4.42341C4.3593 4.16795 4.30053 4.19466 4.2471 4.24807C4.19368 4.3015 4.16697 4.36028 4.16697 4.42439V15.5782C4.16697 15.6423 4.19368 15.7011 4.2471 15.7545C4.30053 15.8079 4.3593 15.8346 4.42341 15.8346Z" fill="#787486"/>
</g>
</svg>
